<svg width="26" height="25" viewBox="0 0 26 25" fill="none" xmlns="http://www.w3.org/2000/svg">
<path d="M12.9836 0.0184834C10.7124 0.0184834 8.61749 0.586276 6.69874 1.72186C4.77999 2.81829 3.25283 4.32587 2.11724 6.24462C1.02082 8.16337 0.472603 10.2583 0.472603 12.5295C0.472603 14.6049 0.922921 16.5432 1.82356 18.3445C2.76335 20.1066 4.03599 21.575 5.64147 22.7498C7.24695 23.9245 9.04823 24.6489 11.0453 24.923V16.1712H7.87348V12.5295H11.0453V9.76885C11.0453 8.24168 11.4564 7.04736 12.2788 6.18588C13.1402 5.32441 14.2954 4.89367 15.7443 4.89367C16.6841 4.89367 17.6239 4.97198 18.5636 5.12862V8.24168H16.9777C16.2729 8.24168 15.7443 8.43747 15.3918 8.82906C15.0786 9.18148 14.9219 9.6318 14.9219 10.18V12.5295H18.4462L17.8588 16.1712H14.9219V24.923C16.9582 24.6098 18.779 23.8658 20.3845 22.691C21.99 21.5163 23.243 20.0479 24.1437 18.2857C25.0443 16.4845 25.4946 14.5657 25.4946 12.5295C25.4946 10.2583 24.9268 8.16337 23.7913 6.24462C22.6948 4.32587 21.1872 2.81829 19.2685 1.72186C17.3497 0.586276 15.2548 0.0184834 12.9836 0.0184834Z" fill="white"/>
</svg>
