<svg width="29" height="30" viewBox="0 0 29 30" fill="none" xmlns="http://www.w3.org/2000/svg">
<path d="M25.302 0.607666H2.81133C1.2651 0.607666 0 1.90655 0 3.49407V26.5853C0 28.1728 1.2651 29.4717 2.81133 29.4717H25.302C26.8482 29.4717 28.1133 28.1728 28.1133 26.5853V3.49407C28.1133 1.90655 26.8482 0.607666 25.302 0.607666ZM14.0566 9.26688C17.1491 9.26688 19.6793 11.8646 19.6793 15.0397C19.6793 18.2147 17.1491 20.8125 14.0566 20.8125C10.9642 20.8125 8.43398 18.2147 8.43398 15.0397C8.43398 11.8646 10.9642 9.26688 14.0566 9.26688ZM3.51416 26.5853C3.09246 26.5853 2.81133 26.2967 2.81133 25.8637V13.5965H5.76322C5.62266 14.0294 5.62266 14.6067 5.62266 15.0397C5.62266 19.8023 9.41795 23.6989 14.0566 23.6989C18.6953 23.6989 22.4906 19.8023 22.4906 15.0397C22.4906 14.6067 22.4906 14.0294 22.3501 13.5965H25.302V25.8637C25.302 26.2967 25.0208 26.5853 24.5991 26.5853H3.51416ZM25.302 7.10207C25.302 7.53504 25.0208 7.82368 24.5991 7.82368H21.7878C21.3661 7.82368 21.085 7.53504 21.085 7.10207V4.21567C21.085 3.78271 21.3661 3.49407 21.7878 3.49407H24.5991C25.0208 3.49407 25.302 3.78271 25.302 4.21567V7.10207Z" fill="white"/>
</svg>
