<svg width="27" height="22" viewBox="0 0 27 22" fill="none" xmlns="http://www.w3.org/2000/svg">
<path d="M26.802 2.9524C25.8622 3.38314 24.8441 3.67683 23.7477 3.83346C24.8833 3.12861 25.6664 2.13008 26.0972 0.837862C25.0399 1.46439 23.9043 1.89513 22.6904 2.13008C21.6332 0.994495 20.3018 0.426702 18.6963 0.426702C17.2474 0.426702 15.9944 0.955337 14.9371 2.01261C13.8799 3.06987 13.3512 4.34251 13.3512 5.83052C13.3512 6.2221 13.41 6.63326 13.5274 7.064C11.3346 6.94653 9.25919 6.39831 7.30129 5.41936C5.38254 4.40125 3.75748 3.06987 2.42611 1.42523C1.95621 2.24755 1.72126 3.14819 1.72126 4.12714C1.72126 5.06694 1.93663 5.92842 2.36737 6.71158C2.79811 7.49474 3.3659 8.12127 4.07075 8.59117C3.24843 8.59117 2.44568 8.3758 1.66252 7.94506V8.0038C1.66252 9.29601 2.07368 10.4316 2.896 11.4106C3.71832 12.3895 4.73643 13.016 5.95033 13.2901C5.5196 13.4076 5.0497 13.4664 4.54064 13.4664C4.22738 13.4664 3.89453 13.4272 3.54211 13.3489C3.89453 14.4453 4.52106 15.3459 5.4217 16.0508C6.36149 16.7165 7.39918 17.0689 8.53477 17.1081C6.61602 18.6352 4.40359 19.3988 1.89747 19.3988C1.46673 19.3988 1.03599 19.3792 0.605253 19.3401C3.11137 20.9455 5.85244 21.7483 8.82846 21.7483C11.9611 21.7483 14.7413 20.9455 17.1691 19.3401C19.4011 17.9304 21.1437 16.0116 22.3967 13.5838C23.5715 11.2735 24.1589 8.90443 24.1589 6.47663L24.1001 5.77178C25.1574 5.02778 26.058 4.08799 26.802 2.9524Z" fill="white"/>
</svg>
