<svg width="78" height="73" viewBox="0 0 78 73" fill="none" xmlns="http://www.w3.org/2000/svg">
<path d="M23.4988 25.8225C17.0018 31.4662 12.897 39.7773 13.5328 48.4816C14.1919 57.5074 20.9117 64.9764 29.2679 67.9057C38.7472 71.2288 49.0719 67.069 56.4574 61.0473C63.4504 55.3459 68.6253 46.7444 70.0144 37.7949C72.1447 24.0642 62.3285 12.7502 49.2635 10.0059C33.9992 6.8002 18.979 15.8777 12.0629 29.3326C6.13341 40.8693 4.95189 58.6306 15.3376 68.1126C20.9057 73.196 28.7719 73.7072 35.8498 72.3672C45.7541 70.4929 53.8782 63.1657 58.9093 54.7068C66.9651 41.1637 65.1132 21.3577 51.7505 11.7842C41.2031 4.22765 26.5348 6.00125 16.8844 14.1247C6.18513 23.13 0.498982 41.848 8.95129 54.0424C16.8155 65.3862 33.3461 66.6433 45.4803 62.8965C60.6146 58.2215 71.4147 44.2733 68.7447 28.108C66.3153 13.4007 52.6649 1.92759 37.5975 6.04036C22.2212 10.2373 13.3631 25.5262 15.1685 40.8833C16.592 52.9955 25.1617 66.1348 38.6338 65.7416C52.9367 65.3239 61.6907 52.3139 63.9271 39.5121C65.8903 28.2665 64.1253 13.0811 53.9107 6.08876C48.7643 2.56542 42.3216 2.79019 36.6175 4.67585C27.9968 7.52423 21.4375 14.9787 17.2252 22.7547C13.1178 30.3338 10.6659 40.4191 14.7296 48.5253C18.4459 55.938 26.9559 59.6245 34.7153 60.9306C42.5059 62.2414 51.4336 61.4193 58.1998 57.0672C65.9036 52.1123 71.5612 43.4505 75.0474 35.16C78.4302 27.1108 79.5925 17.8204 74.0635 10.4508C69.5231 4.40003 61.6575 2.99772 54.5571 3.83911C37.8508 5.81958 24.5915 18.8713 18.2689 33.9142C15.0744 41.5151 13.615 50.5211 18.6494 57.6791C23.8841 65.119 33.8666 67.4542 42.4005 65.9531C51.3786 64.3724 59.6963 58.4423 63.9476 50.3765C66.7344 45.0882 68.9124 39.0215 68.5723 32.9634C68.0617 23.8958 60.6318 18.5531 52.2531 17.1348C34.7644 14.1751 10.2011 26.28 16.6371 47.0912C18.7946 54.0669 23.5094 58.9382 30.4275 61.3245C38.0404 63.9501 46.9383 63.2366 54.2097 59.9069C70.3114 52.5334 70.2013 30.1767 58.8987 18.6214C49.2045 8.71238 32.7388 10.0835 22.3597 18.0505C14.0215 24.4487 8.39368 35.3257 9.11307 45.9395C9.42403 50.5237 11.1943 54.9461 14.5134 58.1704C18.4591 62.0047 24.073 63.3593 29.4197 63.5098C37.4536 63.7366 45.6858 61.7992 51.3673 55.824C56.9096 49.9953 59.1997 41.2009 58.0182 33.3353C56.7193 24.6781 51.2374 15.9845 43.0662 12.359C35.5852 9.04124 27.1793 11.525 20.913 16.2132C14.1183 21.296 8.88233 29.5965 8.22859 38.1423C7.64711 45.7618 11.6392 53.0863 17.6509 57.5876C24.0339 62.3688 32.1481 64.3731 40.0103 62.9681C48.8378 61.3901 56.1173 54.8347 60.9991 47.625C70.204 34.0342 71.9809 11.2644 55.4602 2.23059C44.4751 -3.77646 31.621 3.38295 23.951 11.4626C15.758 20.094 9.8477 33.4865 14.8463 45.1591C17.6575 51.7231 23.8761 56.121 30.2525 58.8421C36.3351 61.4385 43.1026 61.9981 49.4439 60.0322C60.9435 56.4698 69.1935 45.0948 70.8823 33.4434C71.662 28.0642 70.8743 22.4411 68.0372 17.7521C64.8321 12.4558 59.2003 9.41121 53.3146 8.04736C44.4168 5.986 35.0992 9.6141 27.723 14.4277C20.0915 19.4084 13.1065 26.9305 10.8403 35.9563C9.12964 42.7656 10.9079 50.0278 16.2082 54.7247C21.3519 59.2823 28.6738 60.8206 35.3584 60.922C42.3839 61.0274 49.7588 59.3798 55.7128 55.5621C63.6665 50.4627 69.9215 42.0409 69.9215 32.295C69.9215 22.7017 62.4445 13.768 53.1462 11.8107C43.6656 9.81433 33.7433 14.8361 26.4142 20.389C18.4512 26.4212 5.70377 39.0301 13.3943 49.8328C18.9664 57.6579 31.0408 58.5318 39.4314 55.765C51.8255 51.6781 57.0767 39.341 56.2737 27.0193C55.9409 21.9186 54.3271 16.7529 50.5578 13.1447C47.3394 10.0643 42.9004 8.77006 38.5377 8.5864C28.0406 8.14217 17.3002 13.5346 9.74759 20.5057C2.46951 27.2262 -2.62455 37.3055 1.44181 47.1045C4.06409 53.4265 9.42403 58.0484 16.1399 59.4309C24.3396 61.1196 33.2129 58.3488 40.1979 54.0981C47.1664 49.856 52.3075 43.4618 53.5593 35.28C54.7726 27.3495 52.2074 18.7792 46.675 12.9604C32.7282 -1.70847 12.9878 13.5001 5.15279 26.8032C1.02543 33.8127 -0.603636 42.0582 3.37388 49.5066C6.8886 56.0892 14.2635 59.3055 21.3626 60.1085C35.4844 61.7051 52.9546 52.5599 54.5737 37.2585C55.8945 24.7657 44.9624 13.7693 33.0783 12.2861C17.0761 10.2891 3.53433 26.5134 1.01084 40.9946C-0.187254 47.867 2.10484 54.5709 8.68873 57.6168C17.5773 61.7296 28.5949 58.9183 36.5426 54.0616C45.3629 48.6712 52.1656 39.8396 55.5815 30.1349C57.6356 24.2969 58.9961 17.1925 56.9931 11.1503C53.8968 1.81289 43.0629 1.18831 34.9514 3.24702C24.1009 5.9986 13.8212 13.3801 8.14239 23.0643C2.30706 33.0151 2.72278 47.0594 11.6041 55.2021C20.5344 63.3891 34.4335 60.1834 44.0488 55.145C54.1162 49.8706 64.6133 40.0638 65.5157 28.0536C66.4274 15.9328 54.9821 6.4362 43.4169 7.24244C30.5614 8.13753 18.9392 18.2627 12.4693 28.8042C6.31707 38.8285 4.54678 52.1654 14.9464 60.0236C25.7273 68.1689 40.0056 67.1087 50.4066 59.0808C59.6757 51.9287 66.3399 40.077 66.8099 28.2963C67.0055 23.3938 65.822 18.3853 62.6468 14.557C59.0313 10.1996 53.3073 8.57181 47.8546 8.294C34.7478 7.62434 23.0075 15.1119 17.7802 27.0757C13.8836 35.9941 13.6581 48.5008 22.2165 54.8487C26.9353 58.3475 33.1996 58.5358 38.7677 57.5803C45.9676 56.3445 52.7636 52.9564 57.8922 47.7363C66.1012 39.3775 69.3944 25.9803 64.7453 15.0417C62.7124 10.2552 58.9258 6.43089 54.0592 4.56247C47.7644 2.14639 40.6832 3.59643 34.6517 6.05429C21.8161 11.2849 12.5927 23.7751 10.2164 37.3135C9.22844 42.9367 9.61299 49.0021 12.4746 54.0444C15.5113 59.3964 21.2014 62.1254 27.113 62.9204C43.1265 65.0726 60.5198 55.039 69.7982 42.4434C74.1769 36.5006 76.5863 28.9812 73.9826 21.8019C71.4419 14.799 64.3905 8.96964 57.3279 6.93148C43.9573 3.07198 31.6097 13.9748 25.2678 24.6271C19.0638 35.0479 15.5955 50.8194 25.3858 60.2603C35.8179 70.3198 52.9261 63.8997 62.8894 56.5221C68.3415 52.4843 73.1936 47.07 75.3783 40.5517C77.4708 34.3073 75.8755 27.9661 71.6335 23.0438C60.1989 9.77455 40.9345 13.9046 29.5947 24.9109C23.8569 30.4796 19.9947 38.0104 19.526 46.0403C19.1255 52.902 21.523 60.7762 27.4485 64.7623C32.5247 68.1776 39.1603 67.3773 44.5633 65.2728C50.9774 62.7732 56.5728 58.1346 60.6511 52.6375C64.6425 47.257 67.0407 40.5425 66.0229 33.8127C64.966 26.8323 60.7876 19.9428 54.1388 17.1315C41.2229 11.6715 26.0051 21.9518 19.9516 33.025C16.5443 39.2549 15.2441 47.4824 18.8855 53.8893C21.6656 58.7804 27.4956 61.2595 32.9165 59.7756C38.2844 58.305 41.2899 53.1559 42.309 48.0122C42.3786 47.6601 41.8402 47.5096 41.7693 47.863C40.3411 55.0734 34.6377 61.2217 26.7914 59.3135C18.4492 57.284 16.2824 47.7741 17.7968 40.4112C20.7128 26.2144 37.3276 13.0221 52.0801 17.0095C60.0298 19.1584 64.7957 27.3283 65.6331 35.1242C66.4426 42.6562 62.5911 49.9469 57.6873 55.3778C48.9333 65.0719 29.8049 73.2458 22.2994 57.7448C13.9234 40.4463 28.821 21.0487 45.3099 16.253C53.9982 13.7262 63.1507 15.6324 69.7578 21.8888C75.4326 27.2626 77.1691 34.6355 74.2942 41.8944C71.4571 49.0637 65.1802 54.6995 58.7495 58.6412C52.3433 62.5677 44.6641 65.2417 37.0777 64.7232C29.9965 64.2398 23.9583 59.8048 21.3281 53.2242C18.7694 46.8207 19.7653 39.467 21.9354 33.1132C26.3101 20.3081 38.2068 6.10734 52.9771 6.77434C61.277 7.14829 69.3719 13.3927 72.9158 20.702C76.8462 28.8088 73.0855 37.6583 67.7992 44.1109C62.0083 51.1775 53.9153 56.5407 45.4531 59.8532C37.9834 62.7778 29.183 63.8599 21.531 60.9711C7.52445 55.6801 8.9062 38.1973 14.0613 27.0405C20.1538 13.8595 34.3354 2.33867 49.5877 4.05127C62.7655 5.53182 67.8715 19.6212 65.7995 31.207C63.1202 46.1742 49.6501 56.5745 34.7849 57.4915C28.8787 57.8555 22.9213 56.0176 19.2786 51.1503C16.0424 46.824 15.3409 41.0934 15.9443 35.8601C17.4467 22.8276 27.4929 11.7849 40.3776 9.327C46.8925 8.08449 54.6937 8.65006 60.0921 12.8557C64.4197 16.2285 66.1615 21.66 66.2656 26.9722C66.5076 39.4829 58.8569 52.3073 48.9141 59.5011C43.6384 63.3162 37.3018 65.4817 30.7676 65.184C23.8045 64.8677 16.1962 61.5983 11.7015 56.1873C2.62134 45.2606 11.0836 29.5899 19.2024 20.9353C27.8099 11.761 42.7008 3.25762 55.0451 10.3269C60.6371 13.528 64.667 19.6245 64.9853 26.0877C65.2856 32.2055 62.2881 38.0296 58.5658 42.6814C50.6804 52.5347 37.2739 60.1131 24.4251 59.586C18.2271 59.3314 12.5774 56.5089 9.02157 51.3784C5.31125 46.027 4.03094 38.9976 5.13953 32.6365C7.22476 20.6768 17.3744 11.3307 27.9312 6.37387C35.9585 2.60388 49.4863 -0.414229 55.2348 8.69448C58.5022 13.8701 57.5076 20.8067 56.0854 26.3894C53.239 37.5648 45.9988 47.4048 36.2622 53.575C27.8331 58.917 13.9976 62.0293 5.55061 55.0025C-1.24545 49.3475 1.23561 38.9784 4.53683 32.1618C8.44341 24.1 15.1168 16.5109 23.841 13.7096C30.5992 11.5395 37.9303 12.9883 43.7438 16.9041C49.302 20.6482 53.2941 26.7912 54.0115 33.4905C54.8608 41.4303 50.3675 48.3835 44.2928 53.0704C37.3648 58.4138 28.6532 60.6223 20.0013 59.3705C11.488 58.1386 4.01967 52.8901 2.00738 44.2388C-0.230351 34.6236 6.0207 24.8903 12.3546 18.2448C18.841 11.4407 28.1261 5.60807 37.8243 8.22439C47.1471 10.7393 52.46 20.3837 53.2032 29.4566C53.983 38.9731 49.3053 47.0428 41.7036 52.4366C34.3109 57.6818 24.3223 60.7417 15.3223 58.677C8.21665 57.0466 2.75594 50.9686 1.00222 44.0041C-1.76924 32.9919 6.65124 22.8296 15.0671 16.9419C23.3443 11.151 35.3299 6.63908 45.3059 10.482C57.4851 15.1729 57.7781 32.606 53.2569 42.7198C48.3969 53.5922 35.8212 58.5092 24.5511 55.9559C19.9762 54.9189 15.437 52.4505 13.0634 48.2674C10.3012 43.4028 12.0052 37.7266 14.7521 33.2816C19.6367 25.3809 28.0545 18.8488 36.3808 14.9979C41.3615 12.6939 46.9582 11.4175 52.4348 12.245C58.3152 13.1321 63.0824 17.0056 66.2377 21.8941C72.7931 32.0457 68.0763 44.3217 59.8136 51.7901C53.5991 57.4066 45.4617 60.0064 37.197 60.3366C29.7804 60.6323 21.6065 58.9654 16.0152 53.7898C9.48834 47.7503 9.75753 38.0316 13.4486 30.5526C18.1004 21.123 27.5108 13.8794 37.1844 10.1876C45.3443 7.07337 54.4027 7.29747 61.8346 12.1509C73.0842 19.4972 72.1102 34.8026 66.1907 45.24C63.0167 50.8367 58.2098 55.5276 52.3811 58.2891C45.8622 61.3769 38.4846 61.2734 31.7821 58.8454C24.5948 56.2423 17.7649 51.2179 14.9424 43.9146C12.5893 37.8333 13.4911 31.0492 15.8037 25.1104C20.4124 13.2714 32.0957 1.58944 45.3059 0.645951C52.094 0.160613 58.05 3.51555 62.1137 8.80454C68.6432 17.2999 68.6611 28.5118 65.161 38.2431C61.7126 47.8311 54.3622 56.9385 44.8325 60.9585C36.5923 64.4341 26.932 62.9953 19.5273 58.2288C11.9064 53.3217 7.55495 44.642 9.10644 35.6122C10.7249 26.1786 18.0441 17.4385 26.6031 13.4365C36.2549 8.92255 46.203 12.5009 52.2902 20.8637C57.9777 28.6802 59.2653 38.7496 55.7778 47.7589C54.0672 52.18 51.0305 56.0335 47.1312 58.7181C43.2167 61.4153 38.531 62.3349 33.8825 62.7831C27.6381 63.3858 20.8043 62.6214 15.7825 58.5451C7.0663 51.4705 8.83725 38.2756 13.5083 29.4546C19.465 18.205 31.2662 11.1643 44.0647 12.3697C53.6733 13.2747 61.1119 19.6371 64.5722 28.5058C67.9132 37.0675 66.9797 47.9717 60.4946 54.8526C54.3669 61.3537 44.0249 63.1631 35.5235 61.9583C31.1568 61.3391 26.8909 59.7027 23.4438 56.922C20.4509 54.5079 18.6501 51.1629 17.3963 47.5944C13.812 37.3924 18.4247 27.8912 27.3597 22.4809C35.5766 17.5042 46.5424 15.7246 55.7937 18.5325C59.9555 19.7963 63.7666 22.2773 66.0083 26.0732C68.6744 30.5864 68.3727 36.1147 67.0897 41.0079C64.7638 49.8786 59.5882 57.524 51.5205 62.0684C42.189 67.3262 29.9369 67.4244 21.6337 60.1483C13.7722 53.2587 15.2673 42.2186 19.0128 33.6025C22.6197 25.3054 28.6267 17.1581 35.9625 11.7822C42.5735 6.93745 51.1472 3.96575 59.3681 4.15736C68.6326 4.37417 76.2999 10.6325 77.3336 20.0648C78.4514 30.2715 72.4576 41.0795 66.2808 48.7355C63.4099 52.292 59.986 55.6231 55.9071 57.7541C51.9329 59.8313 47.3314 60.6548 42.8938 60.863C33.925 61.2847 23.8383 58.7082 17.6701 51.8286C10.4716 43.7979 13.1947 31.6519 17.7119 23.0338C22.2351 14.4065 29.7373 6.81611 39.4003 4.45572C45.8569 2.87771 52.3254 4.47363 56.8758 9.38999C65.9586 19.1995 65.6185 36.3137 60.9819 47.9982C58.2781 54.8135 53.5281 60.0621 46.8521 63.1432C40.2012 66.213 32.76 65.7615 26.7875 61.4584C14.7767 52.8052 12.5416 34.0163 19.1016 21.5049C23.1693 13.7448 31.1668 7.89486 39.7099 6.10402C47.8267 4.40401 55.8414 7.67606 61.2962 13.7096C66.747 19.7392 69.2307 28.1537 68.4947 36.1824C67.6619 45.2539 62.174 53.1029 54.6632 58.0047C42.6783 65.8291 24.1029 67.248 12.7657 57.4371C0.034862 46.4222 5.62752 25.1635 16.6491 15.0748C27.0036 5.59747 43.6569 4.78459 54.1507 14.4469C60.114 19.9361 62.7469 27.9601 63.1832 35.8747C63.7958 47.0143 58.0838 57.5724 49.8244 64.759C42.4224 71.199 31.4691 74.4823 21.9241 71.3216C14.7276 68.94 10.5167 62.2799 8.95328 55.1808C5.39082 38.9923 13.8067 21.0799 28.453 13.463C41.3277 6.76572 59.4523 9.67907 66.9644 22.9291C70.983 30.0155 70.202 38.4778 67.1236 45.7453C62.8822 55.763 54.4172 64.0071 43.9785 67.305C33.0266 70.7654 20.9177 65.8967 15.9164 55.4222C11.5974 46.3765 15.0101 35.6022 21.4574 28.5496C22.2172 27.7181 23.048 26.9537 23.8986 26.215C24.1672 25.981 23.7707 25.5872 23.4988 25.8225Z" fill="white"/>
</svg>
