<svg width="315" height="28" viewBox="0 0 315 28" fill="none" xmlns="http://www.w3.org/2000/svg">
<path d="M0 12.44V6.2L6 7.2V-1.90735e-06H47.56V8.92L37.12 7.84V5.68H16.44V8.96L47.56 14.2V28H6V13.44L0 12.44ZM16.44 22.32H37.12V18.72L16.44 15.24V22.32ZM51.5719 28L61.3319 5.68H56.3719V-1.90735e-06H84.1719L96.3319 28H85.5319L82.4919 21H65.4519L62.4119 28H51.5719ZM67.9319 15.32H80.0119L75.7719 5.68H72.1719L67.9319 15.32ZM96.7281 28L106.488 5.68H101.528V-1.90735e-06H129.328L141.488 28H130.688L120.928 5.68H117.328L107.568 28H96.7281ZM141.884 28L151.644 5.68H146.684V-1.90735e-06H174.484L186.644 28H175.844L172.804 21H155.764L152.724 28H141.884ZM158.244 15.32H170.324L166.084 5.68H162.484L158.244 15.32ZM183.359 5.68V-1.90735e-06H226.759V10.92L216.319 9.48V5.68H199.759V28H189.319V5.68H183.359ZM225.947 28L235.707 5.68H230.747V-1.90735e-06H258.547L270.707 28H259.907L256.867 21H239.827L236.787 28H225.947ZM242.307 15.32H254.387L250.147 5.68H246.547L242.307 15.32ZM267.422 5.68V-1.90735e-06H283.822V11.08H304.462V-1.90735e-06H314.902V28H304.462V16.76H283.822V28H273.382V5.68H267.422Z" fill="white"/>
</svg>
