<svg width="23" height="23" viewBox="0 0 23 23" fill="none" xmlns="http://www.w3.org/2000/svg">
<path d="M22.9469 22.7483H17.9543V14.2901C17.9543 13.6636 17.641 13.1154 17.0145 12.6455C16.4271 12.1364 15.8006 11.8819 15.1349 11.8819C14.4692 11.8819 13.921 12.1169 13.4903 12.5868C13.0987 13.0567 12.9029 13.6245 12.9029 14.2901V22.7483H7.91023V7.71158H12.9029V10.2373C13.2945 9.57159 13.9406 9.04296 14.8412 8.65138C15.7418 8.22064 16.5642 8.00527 17.3082 8.00527C18.8745 8.00527 20.2059 8.57306 21.3023 9.70864C22.3987 10.8051 22.9469 12.1169 22.9469 13.644V22.7483ZM5.38453 22.7483H0.391874V7.71158H5.38453V22.7483ZM2.91757 0.193226C3.58326 0.193226 4.15105 0.447754 4.62095 0.956809C5.13 1.42671 5.38453 2.01408 5.38453 2.71892C5.38453 3.38461 5.13 3.97198 4.62095 4.48104C4.15105 4.95094 3.56368 5.18588 2.85883 5.18588C2.19315 5.18588 1.60578 4.95094 1.09672 4.48104C0.626823 3.97198 0.391874 3.38461 0.391874 2.71892C0.391874 2.01408 0.626823 1.42671 1.09672 0.956809C1.60578 0.447754 2.21273 0.193226 2.91757 0.193226Z" fill="white"/>
</svg>
