<svg width="50" height="49" viewBox="0 0 50 49" fill="none" xmlns="http://www.w3.org/2000/svg">
<path d="M4.16663 9.39167C4.16663 8.24823 4.16663 7.67651 4.3937 7.23977C4.59343 6.85561 4.91214 6.54327 5.30415 6.34753C5.7498 6.125 6.33318 6.125 7.49996 6.125L42.5 6.125C43.6667 6.125 44.2501 6.125 44.6958 6.34753C45.0878 6.54327 45.4065 6.8556 45.6062 7.23977C45.8333 7.67651 45.8333 8.24823 45.8333 9.39167L45.8333 10.7583C45.8333 11.3071 45.8333 11.5815 45.7649 11.8367C45.7042 12.0628 45.6044 12.277 45.4698 12.47C45.3178 12.6878 45.1062 12.8675 44.6831 13.2269L31.3585 24.5439C30.9353 24.9033 30.7238 25.083 30.5718 25.3008C30.4372 25.4938 30.3374 25.708 30.2767 25.9341C30.2083 26.1893 30.2083 26.4637 30.2083 27.0125L30.2083 37.6858C30.2083 38.0851 30.2083 38.2848 30.1426 38.4574C30.0845 38.6099 29.9901 38.7466 29.8672 38.856C29.728 38.9799 29.5389 39.0541 29.1606 39.2024L22.0773 41.979C21.3116 42.2792 20.9287 42.4293 20.6214 42.3667C20.3526 42.3119 20.1167 42.1555 19.9651 41.9312C19.7916 41.6748 19.7916 41.2707 19.7916 40.4625L19.7916 27.0125C19.7916 26.4637 19.7916 26.1893 19.7232 25.9341C19.6626 25.708 19.5627 25.4938 19.4281 25.3008C19.2762 25.083 19.0646 24.9033 18.6414 24.5439L5.31686 13.2269C4.89368 12.8675 4.68209 12.6878 4.53015 12.47C4.39551 12.277 4.29569 12.0628 4.23506 11.8367C4.16663 11.5815 4.16663 11.3071 4.16663 10.7583L4.16663 9.39167Z" stroke="#121124" stroke-width="4" stroke-linecap="round" stroke-linejoin="round"/>
</svg>
