<svg width="35" height="35" viewBox="0 0 35 35" fill="none" xmlns="http://www.w3.org/2000/svg">
<path fill-rule="evenodd" clip-rule="evenodd" d="M4.375 26.25C4.375 22.4503 6.79701 19.2162 10.1814 18.0075C11.1013 17.6789 12.0923 17.5 13.125 17.5C14.1577 17.5 15.1487 17.6789 16.0685 18.0075C16.5683 18.1859 17.0469 18.4085 17.5 18.6706C17.9531 18.4085 18.4317 18.1859 18.9315 18.0075C19.8513 17.6789 20.8422 17.5 21.875 17.5C22.9078 17.5 23.8987 17.6789 24.8185 18.0075C28.203 19.2162 30.625 22.4503 30.625 26.25V30.625H22.9688V28.4375H28.4375V26.25C28.4375 22.6256 25.4994 19.6875 21.875 19.6875C21.0042 19.6875 20.1731 19.8571 19.4128 20.1651C20.937 21.7398 21.875 23.8853 21.875 26.25V30.625H4.375V26.25ZM13.125 16.4062C12.1203 16.4062 11.1788 16.1353 10.3697 15.6625C8.74665 14.714 7.65625 12.9531 7.65625 10.9375C7.65625 7.91719 10.1047 5.46875 13.125 5.46875C14.9139 5.46875 16.5022 6.32772 17.5 7.65571C18.4978 6.32772 20.0861 5.46875 21.875 5.46875C24.8954 5.46875 27.3438 7.91719 27.3438 10.9375C27.3438 12.9531 26.2534 14.714 24.6302 15.6625C23.8211 16.1353 22.8798 16.4062 21.875 16.4062C20.8702 16.4062 19.9289 16.1353 19.1198 15.6625C18.4882 15.2934 17.9374 14.8014 17.5 14.2193C17.0626 14.8015 16.5118 15.2934 15.8802 15.6625C15.0711 16.1353 14.1297 16.4062 13.125 16.4062ZM19.6875 26.25V28.4375H6.5625V26.25C6.5625 22.6256 9.50063 19.6875 13.125 19.6875C16.7494 19.6875 19.6875 22.6256 19.6875 26.25ZM16.4062 10.9375C16.4062 12.7497 14.9371 14.2188 13.125 14.2188C11.3128 14.2188 9.84375 12.7497 9.84375 10.9375C9.84375 9.12532 11.3128 7.65625 13.125 7.65625C14.9371 7.65625 16.4062 9.12532 16.4062 10.9375ZM21.875 7.65625C20.0629 7.65625 18.5938 9.12532 18.5938 10.9375C18.5938 12.7497 20.0629 14.2188 21.875 14.2188C23.6871 14.2188 25.1562 12.7497 25.1562 10.9375C25.1562 9.12532 23.6871 7.65625 21.875 7.65625Z" fill="black"/>
</svg>
